<svg xmlns="http://www.w3.org/2000/svg" viewBox="0 0 52 52" width="50" height="50">
  <path fill="#ffffff" d="m 50.9,12.46 c -2.7,3.3 -7.5,3.8 -10.8,1.2 -3.3,-2.7 -3.8,-7.5 -1.2,-10.8 2.7,-3.3 7.5,-3.8 10.8,-1.2 3.3,2.7 3.8,7.5 1.2,10.8 z"/>
  <path fill="#ee0c5d" d="m 40.5,24.46 c -2.1,1 -4.7,1 -6.9,-0.3 l -6,8 c 0.8,0.9 1.2,2 1.2,3.1 0,1 -0.2,2 -0.8,2.9 -1.5,2.3 -4.7,3 -7,1.5 -0.2,-0.2 -0.5,-0.3 -0.7,-0.5 0,0 -0.1,-0.1 -0.2,-0.2 -0.1,-0.1 -0.3,-0.3 -0.4,-0.5 0,0 -0.1,-0.1 -0.2,-0.2 -0.1,-0.2 -0.3,-0.4 -0.4,-0.7 0,0 0,-0.1 0,-0.2 0,-0.2 -0.2,-0.4 -0.2,-0.6 0,0 0,-0.1 0,-0.2 0,-0.2 0,-0.5 -0.1,-0.7 0,0 0,-0.1 0,-0.2 0,-0.2 0,-0.5 0,-0.7 0,0 0,0 0,-0.1 0,-0.3 0,-0.5 0.2,-0.8 0,0 0,-0.1 0,-0.2 0,-0.3 0.2,-0.5 0.3,-0.8 l -4.9,-3.7 -1.5,2 -5.6,-4.2 4.2,-5.6 5.6,4.2 -1.5,2 4.9,3.7 c 1.5,-1.3 3.7,-1.6 5.6,-0.6 l 6,-8 c -2.4,-2.4 -3,-6.1 -1.2,-9.2 0.3,-0.6 0.8,-1.1 1.2,-1.6 C 28.8,9.86 24.9,8.56 20.6,8.46 9.3,8.46 0.1,17.56 0,28.96 0,40.26 9.1,49.46 20.5,49.56 31.8,49.56 41,40.46 41.1,29.06 c 0,-1.7 -0.2,-3.3 -0.6,-4.8 z"/>
</svg>